<?xml version="1.0" encoding="UTF-8" standalone="no"?>
<!-- Created with Inkscape (http://www.inkscape.org/) -->

<svg
   xmlns:dc="http://purl.org/dc/elements/1.1/"
   xmlns:cc="http://creativecommons.org/ns#"
   xmlns:rdf="http://www.w3.org/1999/02/22-rdf-syntax-ns#"
   xmlns:svg="http://www.w3.org/2000/svg"
   xmlns="http://www.w3.org/2000/svg"
   xmlns:sodipodi="http://sodipodi.sourceforge.net/DTD/sodipodi-0.dtd"
   xmlns:inkscape="http://www.inkscape.org/namespaces/inkscape"
   width="892.82745"
   height="187.16388"
   id="svg2"
   version="1.1"
   inkscape:version="0.48.5 r10040"
   sodipodi:docname="stars.svg">
  <defs
     id="defs4" />
  <sodipodi:namedview
     id="base"
     pagecolor="#ffffff"
     bordercolor="#666666"
     borderopacity="1.0"
     inkscape:pageopacity="0.0"
     inkscape:pageshadow="2"
     inkscape:zoom="7.9195959"
     inkscape:cx="51.014205"
     inkscape:cy="173.19013"
     inkscape:document-units="px"
     inkscape:current-layer="layer1"
     showgrid="false"
     showguides="true"
     inkscape:guide-bbox="true"
     fit-margin-top="0"
     fit-margin-left="0"
     fit-margin-right="0"
     fit-margin-bottom="0"
     inkscape:window-width="1366"
     inkscape:window-height="712"
     inkscape:window-x="0"
     inkscape:window-y="0"
     inkscape:window-maximized="1">
    <sodipodi:guide
       orientation="0,1"
       position="-79.907184,-111.42858"
       id="guide3016" />
    <sodipodi:guide
       orientation="0,1"
       position="123.66424,385.71428"
       id="guide3065" />
  </sodipodi:namedview>
  <metadata
     id="metadata7">
    <rdf:RDF>
      <cc:Work
         rdf:about="">
        <dc:format>image/svg+xml</dc:format>
        <dc:type
           rdf:resource="http://purl.org/dc/dcmitype/StillImage" />
      </cc:Work>
    </rdf:RDF>
  </metadata>
  <g
     inkscape:label="Layer 1"
     inkscape:groupmode="layer"
     id="layer1"
     transform="translate(-19.192898,-865.19832)">
    <path
       style="fill:#000000"
       d="m 19.371469,865.2179 0,20.0003 99.999991,0 0,-20 z m 10.352731,0.425 c 0.01537,0 2.120743,7.1039 2.133196,7.113 0.01249,0.01 7.421057,-0.1728 7.425806,-0.1582 0.0048,0.015 -6.099639,4.2132 -6.10441,4.2279 -0.0048,0.015 2.454938,7.0019 2.44247,7.0111 -0.0125,0.01 -5.892196,-4.4985 -5.90761,-4.4985 -0.01537,0 -5.898656,4.497 -5.911119,4.4879 -0.01248,-0.01 2.457757,-6.9929 2.453008,-7.0077 -0.0048,-0.015 -6.102152,-4.2201 -6.097382,-4.2347 0.0048,-0.015 7.409819,0.1777 7.422286,0.1687 0.0125,-0.01 2.128342,-7.1095 2.143755,-7.1095 z m 19.789245,0 c 0.01539,0 2.120742,7.1039 2.133206,7.113 0.01249,0.01 7.421048,-0.1728 7.425796,-0.1582 0.0048,0.015 -6.09963,4.2132 -6.104411,4.2279 -0.0048,0.015 2.454949,7.0019 2.44247,7.0111 -0.0125,0.01 -5.892195,-4.4985 -5.90761,-4.4985 -0.01537,0 -5.898655,4.497 -5.911118,4.4879 -0.01249,-0.01 2.457766,-6.9929 2.453008,-7.0077 -0.0048,-0.015 -6.102153,-4.2201 -6.097372,-4.2347 0.0048,-0.015 7.409808,0.1777 7.422286,0.1687 0.0125,-0.01 2.128331,-7.1095 2.143745,-7.1095 z m 19.789244,0 c 0.01542,0 2.12075,7.1039 2.133206,7.113 0.01247,0.01 7.421049,-0.1728 7.425806,-0.1582 0.0048,0.015 -6.099636,4.2132 -6.10441,4.2279 -0.0048,0.015 2.454937,7.0019 2.44246,7.0111 -0.01247,0.01 -5.892198,-4.4985 -5.9076,-4.4985 -0.01543,0 -5.898664,4.497 -5.91112,4.4879 -0.01248,-0.01 2.457758,-6.9929 2.45301,-7.0077 -0.0048,-0.015 -6.102154,-4.2201 -6.097381,-4.2347 0.0048,-0.015 7.409808,0.1777 7.422286,0.1687 0.01247,-0.01 2.128343,-7.1095 2.143743,-7.1095 z m 19.789237,0 c 0.0156,0 2.12075,7.1039 2.13323,7.113 0.0126,0.01 7.42107,-0.1728 7.42576,-0.1582 0.005,0.015 -6.09962,4.2132 -6.10436,4.2279 -0.005,0.015 2.4549,7.0019 2.44241,7.0111 -0.0126,0.01 -5.89213,-4.4985 -5.90758,-4.4985 -0.0156,0 -5.898647,4.497 -5.911112,4.4879 -0.01247,-0.01 2.457756,-6.9929 2.453016,-7.0077 -0.005,-0.015 -6.10216,-4.2201 -6.097387,-4.2347 0.0048,-0.015 7.409833,0.1777 7.422333,0.1687 0.0126,-0.01 2.12832,-7.1095 2.14369,-7.1095 z m 19.789244,0 c 0.0155,0 2.12075,7.1039 2.13324,7.113 0.0125,0.01 7.42105,-0.1728 7.42574,-0.1582 0.005,0.015 -6.09962,4.2132 -6.10434,4.2279 -0.005,0.015 2.45487,7.0019 2.44249,7.0111 -0.0125,0.01 -5.89221,-4.4985 -5.90769,-4.4985 -0.0155,0 -5.89864,4.497 -5.91111,4.4879 -0.0125,-0.01 2.45783,-6.9929 2.45303,-7.0077 -0.005,-0.015 -6.102164,-4.2201 -6.097364,-4.2347 0.005,-0.015 7.409814,0.1777 7.422314,0.1687 0.0126,-0.01 2.12832,-7.1095 2.14369,-7.1095 z"
       id="rect3165"
       inkscape:connector-curvature="0"
       sodipodi:nodetypes="cccccsccccsccccssccccsccccssccccsccccssccccsccccssccccsccccs" />
  </g>
</svg>
